<?xml version="1.0" encoding="UTF-8"?>
<svg id="Ebene_1" xmlns="http://www.w3.org/2000/svg" width="304.8511" height="183.8299" version="1.1" xmlns:xlink="http://www.w3.org/1999/xlink" viewBox="0 0 304.8511 183.8299">
  <!-- Generator: Adobe Illustrator 29.1.0, SVG Export Plug-In . SVG Version: 2.1.0 Build 142)  -->
  <defs>
    <style>
      .st0 {
        isolation: isolate;
      }

      .st1 {
        fill: #37594d;
      }

      .st2 {
        fill: url(#Unbenannter_Verlauf);
      }

      .st3 {
        fill: #8b9986;
      }
    </style>
    <linearGradient id="Unbenannter_Verlauf" data-name="Unbenannter Verlauf" x1="110.0057" y1="129.4366" x2="196.9149" y2="129.4366" gradientTransform="translate(0 186) scale(1 -1)" gradientUnits="userSpaceOnUse">
      <stop offset="0" stop-color="#8b9986"/>
      <stop offset="1" stop-color="#37594d"/>
    </linearGradient>
  </defs>
  <path class="st2" d="M168.3967,57.8533c1.5715-16.0568-3.2321-29.3811-15.4214-39.8455-12.1514,10.6543-16.8534,24.0993-14.8582,40.0108-15.1721,6.6484-24.3226,17.9344-28.1114,34.2525,16.1276,5.8427,30.2589,2.3982,43.3783-7.6153,13.2005,10.1163,27.424,12.9496,43.5309,7.3773-4.1393-16.5587-13.6125-27.6951-28.5182-34.1798h0ZM152.9049,23.7955c8.7128,6.3049,14.3251,22.9911,11.5744,32.6921-3.684-.4872-7.4281-1.1374-11.2125-1.0653-3.7928.0723-7.5664.4209-11.2469,1.2518-3.09-10.077,2.3095-26.38,10.885-32.8786ZM115.1569,89.6685c1.2035-10.5637,12.9108-24.3486,24.0233-27.4955,2.459,7.1926,5.9715,13.8695,11.2672,19.6025-7.9619,8.354-25.2198,12.1045-35.2905,7.893ZM153.1584,78.966c-5.2224-4.9137-8.5392-10.7509-10.3964-17.9294,7.0679-2.5633,13.8742-2.3208,20.728-.1664-.7369,5.9865-5.2474,13.9532-10.3316,18.0958h0ZM156.4152,81.7429c2.1448-3.0396,4.602-5.9075,6.4871-9.196,1.8839-3.2863,3.1153-6.896,4.5135-10.356,10.2702,2.5328,23.3782,16.9624,24.0103,27.4617-10.7033,3.9114-28.0541.0134-35.0109-7.9097h0Z"/>
  <g>
    <rect class="st3" x="220.324" y="144.4357" width="35.6495" height="1.6671"/>
    <rect class="st3" x="51.0879" y="144.4357" width="34.1621" height="1.6671"/>
  </g>
  <g class="st0">
    <g class="st0">
      <path class="st1" d="M51.0479,125.1719v-17.9951h11.6392c2.2544,0,4.0693.3779,5.4458,1.1338,1.5186.8242,2.2783,2.0078,2.2783,3.5537,0,1.1768-.4155,2.167-1.2461,2.9736-.8779.8574-2.1123,1.3955-3.7017,1.6133v.0508c2.7524.252,4.2358,1.6045,4.4492,4.0576.1187,1.4443.1895,2.251.2134,2.4189.1899,1.0762.5103,1.8066.9614,2.1934h-2.6699c-.3325-.3691-.5576-1.3027-.6763-2.7979-.1421-1.6963-.439-2.873-.8896-3.5283-.7598-1.1094-2.1597-1.6641-4.2002-1.6641h-9.1831v7.9902h-2.4204ZM53.4683,108.6387v7.082h9.041c1.542,0,2.8413-.3193,3.8975-.958,1.0557-.6377,1.584-1.4873,1.584-2.5459,0-1.125-.4688-2.0029-1.4062-2.6328-.9375-.6309-2.2954-.9453-4.0752-.9453h-9.041Z"/>
      <path class="st1" d="M82.5479,125.1719v-17.9951h17.5479v1.4619h-15.1274v6.502h14.1665v1.4619h-14.1665v7.1064h15.3052v1.4629h-17.7256Z"/>
      <path class="st1" d="M132.4141,112.6211h-2.4204c-.4272-1.3613-1.3589-2.4277-2.7939-3.2012-1.436-.7734-3.103-1.1592-5.001-1.1592-3.1562,0-5.5884.8232-7.2969,2.4697-1.5186,1.4609-2.2778,3.2764-2.2778,5.4434s.7593,3.9746,2.2778,5.4189c1.7085,1.6631,4.1406,2.4951,7.2969,2.4951,2.2778,0,4.1646-.5625,5.6592-1.6895,1.4238-1.0576,2.2544-2.4189,2.4917-4.082h2.4204c-.3325,2.2178-1.4419,3.9785-3.3281,5.2793-1.8862,1.3027-4.3013,1.9531-7.2432,1.9531-3.8208,0-6.8223-.9482-9.0054-2.8477-1.9932-1.7305-2.9897-3.9062-2.9897-6.5273s.9966-4.7969,2.9897-6.5273c2.1831-1.8984,5.1846-2.8477,9.0054-2.8477,2.5386,0,4.7573.4961,6.6558,1.4863,2.0645,1.0928,3.251,2.5371,3.5596,4.3359Z"/>
      <path class="st1" d="M142.8779,116.1738c0-2.6211.9971-4.7969,2.9902-6.5273,2.1826-1.8984,5.1841-2.8477,9.0049-2.8477,3.7969,0,6.7861.9492,8.9697,2.8477,1.9932,1.7305,2.9893,3.9062,2.9893,6.5273s-.9961,4.7969-2.9893,6.5273c-2.1836,1.8994-5.1729,2.8477-8.9697,2.8477-3.8208,0-6.8223-.9482-9.0049-2.8477-1.9932-1.7305-2.9902-3.9062-2.9902-6.5273ZM145.2983,116.1738c0,2.168.7593,3.9746,2.2783,5.4189,1.7085,1.6631,4.1401,2.4951,7.2964,2.4951,3.1328,0,5.5645-.832,7.2969-2.4951,1.4941-1.4443,2.2422-3.251,2.2422-5.4189s-.748-3.9824-2.2422-5.4434c-1.7324-1.6465-4.1641-2.4697-7.2969-2.4697-3.1562,0-5.5879.8232-7.2964,2.4697-1.519,1.4609-2.2783,3.2764-2.2783,5.4434Z"/>
      <path class="st1" d="M184.9854,125.1719l-9.4326-17.9951h2.5986l8.2578,16.1045h.0713l8.1865-16.1045h2.5625l-9.4326,17.9951h-2.8115Z"/>
      <path class="st1" d="M207.2305,125.1719v-17.9951h17.5479v1.4619h-15.127v6.502h14.166v1.4619h-14.166v7.1064h15.3047v1.4629h-17.7256Z"/>
      <path class="st1" d="M236.0967,125.1719v-17.9951h11.6396c2.2539,0,4.0693.3779,5.4453,1.1338,1.5186.8242,2.2783,2.0078,2.2783,3.5537,0,1.1768-.416,2.167-1.2461,2.9736-.8779.8574-2.1123,1.3955-3.7012,1.6133v.0508c2.752.252,4.2354,1.6045,4.4492,4.0576.1182,1.4443.1895,2.251.2129,2.4189.1895,1.0762.5098,1.8066.9609,2.1934h-2.6689c-.333-.3691-.5576-1.3027-.6768-2.7979-.1426-1.6963-.4395-2.873-.8896-3.5283-.7598-1.1094-2.1592-1.6641-4.2002-1.6641h-9.1826v7.9902h-2.4209ZM238.5176,108.6387v7.082h9.04c1.543,0,2.8418-.3193,3.8975-.958,1.0557-.6377,1.584-1.4873,1.584-2.5459,0-1.125-.4688-2.0029-1.4053-2.6328-.9375-.6309-2.2959-.9453-4.0762-.9453h-9.04Z"/>
    </g>
    <g class="st0">
      <path class="st3" d="M118.6572,142.8633h-2.4204c-.4272-1.3604-1.3589-2.4277-2.7939-3.2002-1.436-.7725-3.103-1.1592-5.001-1.1592-3.1562,0-5.5884.8232-7.2969,2.4697-1.5186,1.4619-2.2778,3.2764-2.2778,5.4443,0,2.166.7593,3.9727,2.2778,5.418,1.7085,1.6631,4.1406,2.4951,7.2969,2.4951,2.2778,0,4.1646-.5635,5.6592-1.6885,1.4238-1.0586,2.2544-2.4199,2.4917-4.083h2.4204c-.3325,2.2178-1.4419,3.9775-3.3281,5.2803-1.8862,1.3018-4.3013,1.9531-7.2432,1.9531-3.8208,0-6.8223-.9492-9.0054-2.8477-1.9932-1.7305-2.9897-3.9072-2.9897-6.5273s.9966-4.7969,2.9897-6.5283c2.1831-1.8984,5.1846-2.8477,9.0054-2.8477,2.5386,0,4.7573.4951,6.6558,1.4873,2.0645,1.0918,3.251,2.5371,3.5596,4.334Z"/>
      <path class="st3" d="M130.4736,155.4141v-17.9941h2.4204v16.5332h14.2378v1.4609h-16.6582Z"/>
      <path class="st3" d="M157.0977,148.9375v-11.5176h2.4199v11.1396c0,3.8477,2.4795,5.7715,7.4395,5.7715,4.9824,0,7.4746-1.9238,7.4746-5.7715v-11.1396h2.4199v11.5176c0,2.0156-.7598,3.6211-2.2773,4.8135-1.7324,1.3613-4.2715,2.042-7.6172,2.042-3.3223,0-5.8496-.6807-7.582-2.042-1.5186-1.21-2.2773-2.8135-2.2773-4.8135Z"/>
      <path class="st3" d="M189.4873,155.4141v-17.9941h10.749c2.3965,0,4.2949.3193,5.6953.957,1.6377.7402,2.4561,1.8906,2.4561,3.4531,0,.958-.4092,1.8193-1.2275,2.584-.8193.7637-1.8809,1.2471-3.1865,1.4492v.0498c1.6377.1514,2.9424.626,3.916,1.4238.9727.7979,1.459,1.7861,1.459,2.9619,0,3.4102-3.0381,5.1152-9.1123,5.1152h-10.749ZM191.9082,138.8818v6.4268h8.3281c1.8516,0,3.2871-.2939,4.3076-.8828.9482-.5547,1.4238-1.2764,1.4238-2.167,0-2.251-1.9111-3.377-5.7314-3.377h-8.3281ZM191.9082,146.7695v7.1836h8.3281c4.4609,0,6.6924-1.2354,6.6924-3.7051,0-2.3184-2.2314-3.4785-6.6924-3.4785h-8.3281Z"/>
    </g>
  </g>
</svg>